<mxfile host="app.diagrams.net" agent="Mozilla/5.0 (Windows NT 10.0; Win64; x64) AppleWebKit/537.36 (KHTML, like Gecko) Chrome/134.0.0.0 Safari/537.36" version="26.1.3">
  <diagram name="Strona-1" id="TZrpJquunwp9o4Y723vJ">
    <mxGraphModel dx="1050" dy="530" grid="1" gridSize="10" guides="1" tooltips="1" connect="1" arrows="1" fold="1" page="1" pageScale="1" pageWidth="827" pageHeight="1169" math="0" shadow="0">
      <root>
        <mxCell id="0" />
        <mxCell id="1" parent="0" />
        <mxCell id="-Jw6ljCcCgHsVp-Y0mqn-3" style="edgeStyle=orthogonalEdgeStyle;rounded=0;orthogonalLoop=1;jettySize=auto;html=1;exitX=0.5;exitY=1;exitDx=0;exitDy=0;entryX=0.5;entryY=0;entryDx=0;entryDy=0;" edge="1" parent="1" source="-Jw6ljCcCgHsVp-Y0mqn-1" target="-Jw6ljCcCgHsVp-Y0mqn-2">
          <mxGeometry relative="1" as="geometry" />
        </mxCell>
        <mxCell id="-Jw6ljCcCgHsVp-Y0mqn-1" value="" style="shape=ellipse;html=1;fillColor=strokeColor;strokeWidth=2;verticalLabelPosition=bottom;verticalAlignment=top;perimeter=ellipsePerimeter;" vertex="1" parent="1">
          <mxGeometry x="120" y="40" width="40" height="40" as="geometry" />
        </mxCell>
        <mxCell id="-Jw6ljCcCgHsVp-Y0mqn-2" value="Nieaktywbny" style="rounded=1;whiteSpace=wrap;html=1;" vertex="1" parent="1">
          <mxGeometry x="90" y="110" width="100" height="50" as="geometry" />
        </mxCell>
        <mxCell id="-Jw6ljCcCgHsVp-Y0mqn-4" value="Wprowadzanie danych" style="rounded=1;whiteSpace=wrap;html=1;" vertex="1" parent="1">
          <mxGeometry x="310" y="110" width="100" height="50" as="geometry" />
        </mxCell>
        <mxCell id="-Jw6ljCcCgHsVp-Y0mqn-6" value="Weryfikacja" style="rounded=1;whiteSpace=wrap;html=1;" vertex="1" parent="1">
          <mxGeometry x="520" y="110" width="100" height="50" as="geometry" />
        </mxCell>
        <mxCell id="-Jw6ljCcCgHsVp-Y0mqn-16" style="edgeStyle=orthogonalEdgeStyle;rounded=0;orthogonalLoop=1;jettySize=auto;html=1;exitX=0.5;exitY=1;exitDx=0;exitDy=0;entryX=1;entryY=0.5;entryDx=0;entryDy=0;" edge="1" parent="1" source="-Jw6ljCcCgHsVp-Y0mqn-8" target="-Jw6ljCcCgHsVp-Y0mqn-14">
          <mxGeometry relative="1" as="geometry" />
        </mxCell>
        <mxCell id="-Jw6ljCcCgHsVp-Y0mqn-8" value="Zalogowany" style="rounded=1;whiteSpace=wrap;html=1;" vertex="1" parent="1">
          <mxGeometry x="520" y="200" width="100" height="50" as="geometry" />
        </mxCell>
        <mxCell id="-Jw6ljCcCgHsVp-Y0mqn-9" value="Błąd logowania" style="rounded=1;whiteSpace=wrap;html=1;" vertex="1" parent="1">
          <mxGeometry x="710" y="220" width="100" height="50" as="geometry" />
        </mxCell>
        <mxCell id="-Jw6ljCcCgHsVp-Y0mqn-22" style="edgeStyle=orthogonalEdgeStyle;rounded=0;orthogonalLoop=1;jettySize=auto;html=1;exitX=0.5;exitY=1;exitDx=0;exitDy=0;entryX=0.5;entryY=1;entryDx=0;entryDy=0;" edge="1" parent="1" source="-Jw6ljCcCgHsVp-Y0mqn-10" target="-Jw6ljCcCgHsVp-Y0mqn-14">
          <mxGeometry relative="1" as="geometry" />
        </mxCell>
        <mxCell id="-Jw6ljCcCgHsVp-Y0mqn-10" value="Zablokowany" style="rounded=1;whiteSpace=wrap;html=1;" vertex="1" parent="1">
          <mxGeometry x="720" y="320" width="100" height="50" as="geometry" />
        </mxCell>
        <mxCell id="-Jw6ljCcCgHsVp-Y0mqn-14" value="" style="ellipse;html=1;shape=endState;fillColor=strokeColor;" vertex="1" parent="1">
          <mxGeometry x="400" y="280" width="40" height="40" as="geometry" />
        </mxCell>
        <mxCell id="-Jw6ljCcCgHsVp-Y0mqn-17" value="Rozpocznij logowanie" style="html=1;verticalAlign=top;labelBackgroundColor=none;endArrow=open;endFill=0;rounded=0;exitX=1;exitY=0.5;exitDx=0;exitDy=0;entryX=0;entryY=0.5;entryDx=0;entryDy=0;" edge="1" parent="1" source="-Jw6ljCcCgHsVp-Y0mqn-2" target="-Jw6ljCcCgHsVp-Y0mqn-4">
          <mxGeometry width="160" relative="1" as="geometry">
            <mxPoint x="360" y="280" as="sourcePoint" />
            <mxPoint x="480" y="200" as="targetPoint" />
          </mxGeometry>
        </mxCell>
        <mxCell id="-Jw6ljCcCgHsVp-Y0mqn-18" value="Dane wprowadzone" style="html=1;verticalAlign=top;labelBackgroundColor=none;endArrow=open;endFill=0;rounded=0;entryX=0;entryY=0.5;entryDx=0;entryDy=0;exitX=1;exitY=0.5;exitDx=0;exitDy=0;" edge="1" parent="1" source="-Jw6ljCcCgHsVp-Y0mqn-4" target="-Jw6ljCcCgHsVp-Y0mqn-6">
          <mxGeometry width="160" relative="1" as="geometry">
            <mxPoint x="360" y="280" as="sourcePoint" />
            <mxPoint x="520" y="280" as="targetPoint" />
          </mxGeometry>
        </mxCell>
        <mxCell id="-Jw6ljCcCgHsVp-Y0mqn-19" value="Dane poprawne" style="html=1;verticalAlign=top;labelBackgroundColor=none;endArrow=open;endFill=0;rounded=0;entryX=0.5;entryY=0;entryDx=0;entryDy=0;exitX=0.5;exitY=1;exitDx=0;exitDy=0;" edge="1" parent="1" source="-Jw6ljCcCgHsVp-Y0mqn-6" target="-Jw6ljCcCgHsVp-Y0mqn-8">
          <mxGeometry width="160" relative="1" as="geometry">
            <mxPoint x="360" y="280" as="sourcePoint" />
            <mxPoint x="520" y="280" as="targetPoint" />
            <Array as="points" />
          </mxGeometry>
        </mxCell>
        <mxCell id="-Jw6ljCcCgHsVp-Y0mqn-20" value="Dane niepoprawne" style="html=1;verticalAlign=top;labelBackgroundColor=none;endArrow=open;endFill=0;rounded=0;entryX=0.5;entryY=0;entryDx=0;entryDy=0;exitX=1;exitY=0.5;exitDx=0;exitDy=0;" edge="1" parent="1" source="-Jw6ljCcCgHsVp-Y0mqn-6" target="-Jw6ljCcCgHsVp-Y0mqn-9">
          <mxGeometry width="160" relative="1" as="geometry">
            <mxPoint x="360" y="280" as="sourcePoint" />
            <mxPoint x="520" y="280" as="targetPoint" />
          </mxGeometry>
        </mxCell>
        <mxCell id="-Jw6ljCcCgHsVp-Y0mqn-23" value="Dane niepoprawne" style="html=1;verticalAlign=top;labelBackgroundColor=none;endArrow=open;endFill=0;rounded=0;exitX=1;exitY=1;exitDx=0;exitDy=0;entryX=0;entryY=0;entryDx=0;entryDy=0;" edge="1" parent="1" source="-Jw6ljCcCgHsVp-Y0mqn-6" target="-Jw6ljCcCgHsVp-Y0mqn-10">
          <mxGeometry x="0.1798" y="-11" width="160" relative="1" as="geometry">
            <mxPoint x="360" y="280" as="sourcePoint" />
            <mxPoint x="520" y="280" as="targetPoint" />
            <mxPoint as="offset" />
          </mxGeometry>
        </mxCell>
        <mxCell id="-Jw6ljCcCgHsVp-Y0mqn-24" value="Spróbuje ponownie" style="html=1;verticalAlign=top;labelBackgroundColor=none;endArrow=open;endFill=0;rounded=0;entryX=0.5;entryY=0;entryDx=0;entryDy=0;exitX=0.5;exitY=0;exitDx=0;exitDy=0;" edge="1" parent="1" source="-Jw6ljCcCgHsVp-Y0mqn-9" target="-Jw6ljCcCgHsVp-Y0mqn-4">
          <mxGeometry width="160" relative="1" as="geometry">
            <mxPoint x="360" y="280" as="sourcePoint" />
            <mxPoint x="520" y="280" as="targetPoint" />
            <Array as="points">
              <mxPoint x="760" y="80" />
              <mxPoint x="540" y="80" />
              <mxPoint x="440" y="80" />
              <mxPoint x="360" y="80" />
            </Array>
          </mxGeometry>
        </mxCell>
        <mxCell id="-Jw6ljCcCgHsVp-Y0mqn-25" value="Wyloguj" style="html=1;verticalAlign=top;labelBackgroundColor=none;endArrow=open;endFill=0;rounded=0;entryX=0.5;entryY=1;entryDx=0;entryDy=0;exitX=0;exitY=0.5;exitDx=0;exitDy=0;" edge="1" parent="1" source="-Jw6ljCcCgHsVp-Y0mqn-8" target="-Jw6ljCcCgHsVp-Y0mqn-2">
          <mxGeometry width="160" relative="1" as="geometry">
            <mxPoint x="360" y="280" as="sourcePoint" />
            <mxPoint x="140" y="170" as="targetPoint" />
            <Array as="points">
              <mxPoint x="280" y="220" />
              <mxPoint x="140" y="220" />
            </Array>
          </mxGeometry>
        </mxCell>
        <mxCell id="-Jw6ljCcCgHsVp-Y0mqn-26" value="System logowania" style="text;html=1;align=center;verticalAlign=middle;resizable=0;points=[];autosize=1;strokeColor=none;fillColor=none;" vertex="1" parent="1">
          <mxGeometry y="10" width="120" height="30" as="geometry" />
        </mxCell>
        <mxCell id="-Jw6ljCcCgHsVp-Y0mqn-35" style="edgeStyle=orthogonalEdgeStyle;rounded=0;orthogonalLoop=1;jettySize=auto;html=1;exitX=0.5;exitY=1;exitDx=0;exitDy=0;entryX=0.5;entryY=0;entryDx=0;entryDy=0;" edge="1" parent="1" source="-Jw6ljCcCgHsVp-Y0mqn-27" target="-Jw6ljCcCgHsVp-Y0mqn-29">
          <mxGeometry relative="1" as="geometry" />
        </mxCell>
        <mxCell id="-Jw6ljCcCgHsVp-Y0mqn-27" value="" style="shape=ellipse;html=1;fillColor=strokeColor;strokeWidth=2;verticalLabelPosition=bottom;verticalAlignment=top;perimeter=ellipsePerimeter;" vertex="1" parent="1">
          <mxGeometry x="240" y="400" width="40" height="40" as="geometry" />
        </mxCell>
        <mxCell id="-Jw6ljCcCgHsVp-Y0mqn-28" value="Automat do sprzedaży napojów" style="text;html=1;align=center;verticalAlign=middle;resizable=0;points=[];autosize=1;strokeColor=none;fillColor=none;" vertex="1" parent="1">
          <mxGeometry x="45" y="380" width="190" height="30" as="geometry" />
        </mxCell>
        <mxCell id="-Jw6ljCcCgHsVp-Y0mqn-29" value="Czekanie na wybór" style="rounded=1;whiteSpace=wrap;html=1;" vertex="1" parent="1">
          <mxGeometry x="210" y="500" width="100" height="50" as="geometry" />
        </mxCell>
        <mxCell id="-Jw6ljCcCgHsVp-Y0mqn-30" value="Czekanie na płatność" style="rounded=1;whiteSpace=wrap;html=1;" vertex="1" parent="1">
          <mxGeometry x="210" y="580" width="100" height="50" as="geometry" />
        </mxCell>
        <mxCell id="-Jw6ljCcCgHsVp-Y0mqn-31" value="Weryfikacja płatności" style="rounded=1;whiteSpace=wrap;html=1;" vertex="1" parent="1">
          <mxGeometry x="210" y="670" width="100" height="50" as="geometry" />
        </mxCell>
        <mxCell id="-Jw6ljCcCgHsVp-Y0mqn-32" value="Wydawanie napoju" style="rounded=1;whiteSpace=wrap;html=1;" vertex="1" parent="1">
          <mxGeometry x="530" y="620" width="100" height="50" as="geometry" />
        </mxCell>
        <mxCell id="-Jw6ljCcCgHsVp-Y0mqn-33" value="Błąd płatności" style="rounded=1;whiteSpace=wrap;html=1;" vertex="1" parent="1">
          <mxGeometry x="210" y="770" width="100" height="50" as="geometry" />
        </mxCell>
        <mxCell id="-Jw6ljCcCgHsVp-Y0mqn-34" value="Brak napoju" style="rounded=1;whiteSpace=wrap;html=1;" vertex="1" parent="1">
          <mxGeometry x="30" y="500" width="100" height="50" as="geometry" />
        </mxCell>
        <mxCell id="-Jw6ljCcCgHsVp-Y0mqn-36" value="Napój wybrany" style="html=1;verticalAlign=top;labelBackgroundColor=none;endArrow=open;endFill=0;rounded=0;exitX=0.5;exitY=1;exitDx=0;exitDy=0;entryX=0.5;entryY=0;entryDx=0;entryDy=0;" edge="1" parent="1" source="-Jw6ljCcCgHsVp-Y0mqn-29" target="-Jw6ljCcCgHsVp-Y0mqn-30">
          <mxGeometry x="-0.6" width="160" relative="1" as="geometry">
            <mxPoint x="360" y="480" as="sourcePoint" />
            <mxPoint x="520" y="480" as="targetPoint" />
            <mxPoint as="offset" />
          </mxGeometry>
        </mxCell>
        <mxCell id="-Jw6ljCcCgHsVp-Y0mqn-37" value="Zapłacono" style="html=1;verticalAlign=top;labelBackgroundColor=none;endArrow=open;endFill=0;rounded=0;exitX=0.5;exitY=1;exitDx=0;exitDy=0;entryX=0.5;entryY=0;entryDx=0;entryDy=0;" edge="1" parent="1" source="-Jw6ljCcCgHsVp-Y0mqn-30" target="-Jw6ljCcCgHsVp-Y0mqn-31">
          <mxGeometry x="-1" width="160" relative="1" as="geometry">
            <mxPoint x="360" y="480" as="sourcePoint" />
            <mxPoint x="520" y="480" as="targetPoint" />
            <mxPoint as="offset" />
          </mxGeometry>
        </mxCell>
        <mxCell id="-Jw6ljCcCgHsVp-Y0mqn-38" value="Kwota wystarczająca i napój dostpeny" style="html=1;verticalAlign=top;labelBackgroundColor=none;endArrow=open;endFill=0;rounded=0;exitX=1;exitY=0;exitDx=0;exitDy=0;entryX=0;entryY=1;entryDx=0;entryDy=0;" edge="1" parent="1" source="-Jw6ljCcCgHsVp-Y0mqn-31" target="-Jw6ljCcCgHsVp-Y0mqn-32">
          <mxGeometry x="-0.0651" y="-17" width="160" relative="1" as="geometry">
            <mxPoint x="360" y="480" as="sourcePoint" />
            <mxPoint x="520" y="480" as="targetPoint" />
            <mxPoint as="offset" />
          </mxGeometry>
        </mxCell>
        <mxCell id="-Jw6ljCcCgHsVp-Y0mqn-39" value="Napój wydany" style="html=1;verticalAlign=top;labelBackgroundColor=none;endArrow=open;endFill=0;rounded=0;exitX=0;exitY=0;exitDx=0;exitDy=0;entryX=1;entryY=1;entryDx=0;entryDy=0;" edge="1" parent="1" source="-Jw6ljCcCgHsVp-Y0mqn-32" target="-Jw6ljCcCgHsVp-Y0mqn-29">
          <mxGeometry width="160" relative="1" as="geometry">
            <mxPoint x="360" y="480" as="sourcePoint" />
            <mxPoint x="520" y="480" as="targetPoint" />
          </mxGeometry>
        </mxCell>
        <mxCell id="-Jw6ljCcCgHsVp-Y0mqn-40" value="Kwota niewystarczająca" style="html=1;verticalAlign=top;labelBackgroundColor=none;endArrow=open;endFill=0;rounded=0;exitX=0.5;exitY=1;exitDx=0;exitDy=0;entryX=0.5;entryY=0;entryDx=0;entryDy=0;" edge="1" parent="1" source="-Jw6ljCcCgHsVp-Y0mqn-31" target="-Jw6ljCcCgHsVp-Y0mqn-33">
          <mxGeometry x="-0.5" width="160" relative="1" as="geometry">
            <mxPoint x="360" y="580" as="sourcePoint" />
            <mxPoint x="520" y="580" as="targetPoint" />
            <mxPoint as="offset" />
          </mxGeometry>
        </mxCell>
        <mxCell id="-Jw6ljCcCgHsVp-Y0mqn-41" value="Napój niedostępny" style="html=1;verticalAlign=top;labelBackgroundColor=none;endArrow=open;endFill=0;rounded=0;exitX=0;exitY=0;exitDx=0;exitDy=0;entryX=1;entryY=1;entryDx=0;entryDy=0;" edge="1" parent="1" source="-Jw6ljCcCgHsVp-Y0mqn-31" target="-Jw6ljCcCgHsVp-Y0mqn-34">
          <mxGeometry width="160" relative="1" as="geometry">
            <mxPoint x="360" y="580" as="sourcePoint" />
            <mxPoint x="520" y="580" as="targetPoint" />
            <Array as="points">
              <mxPoint x="130" y="670" />
            </Array>
          </mxGeometry>
        </mxCell>
        <mxCell id="-Jw6ljCcCgHsVp-Y0mqn-42" value="Wrzuć odpowiednią kwote" style="html=1;verticalAlign=top;labelBackgroundColor=none;endArrow=open;endFill=0;rounded=0;exitX=0;exitY=0.5;exitDx=0;exitDy=0;entryX=0;entryY=0.5;entryDx=0;entryDy=0;" edge="1" parent="1" source="-Jw6ljCcCgHsVp-Y0mqn-33" target="-Jw6ljCcCgHsVp-Y0mqn-30">
          <mxGeometry width="160" relative="1" as="geometry">
            <mxPoint x="360" y="580" as="sourcePoint" />
            <mxPoint x="520" y="580" as="targetPoint" />
            <Array as="points">
              <mxPoint x="160" y="795" />
              <mxPoint x="160" y="680" />
              <mxPoint x="160" y="605" />
            </Array>
          </mxGeometry>
        </mxCell>
        <mxCell id="-Jw6ljCcCgHsVp-Y0mqn-44" value="Wybierz inny" style="html=1;verticalAlign=top;labelBackgroundColor=none;endArrow=open;endFill=0;rounded=0;exitX=1;exitY=0.5;exitDx=0;exitDy=0;entryX=0;entryY=0;entryDx=0;entryDy=0;" edge="1" parent="1" source="-Jw6ljCcCgHsVp-Y0mqn-34" target="-Jw6ljCcCgHsVp-Y0mqn-30">
          <mxGeometry x="-0.3793" y="27" width="160" relative="1" as="geometry">
            <mxPoint x="360" y="580" as="sourcePoint" />
            <mxPoint x="520" y="580" as="targetPoint" />
            <mxPoint as="offset" />
          </mxGeometry>
        </mxCell>
        <mxCell id="-Jw6ljCcCgHsVp-Y0mqn-52" style="edgeStyle=orthogonalEdgeStyle;rounded=0;orthogonalLoop=1;jettySize=auto;html=1;exitX=0.5;exitY=1;exitDx=0;exitDy=0;entryX=0.5;entryY=0;entryDx=0;entryDy=0;" edge="1" parent="1" source="-Jw6ljCcCgHsVp-Y0mqn-45" target="-Jw6ljCcCgHsVp-Y0mqn-47">
          <mxGeometry relative="1" as="geometry" />
        </mxCell>
        <mxCell id="-Jw6ljCcCgHsVp-Y0mqn-45" value="" style="shape=ellipse;html=1;fillColor=strokeColor;strokeWidth=2;verticalLabelPosition=bottom;verticalAlignment=top;perimeter=ellipsePerimeter;" vertex="1" parent="1">
          <mxGeometry x="240" y="890" width="40" height="40" as="geometry" />
        </mxCell>
        <mxCell id="-Jw6ljCcCgHsVp-Y0mqn-47" value="Nieaktywne" style="rounded=1;whiteSpace=wrap;html=1;" vertex="1" parent="1">
          <mxGeometry x="210" y="970" width="100" height="50" as="geometry" />
        </mxCell>
        <mxCell id="-Jw6ljCcCgHsVp-Y0mqn-48" value="Nieaktywne" style="rounded=1;whiteSpace=wrap;html=1;" vertex="1" parent="1">
          <mxGeometry x="210" y="1070" width="100" height="50" as="geometry" />
        </mxCell>
        <mxCell id="-Jw6ljCcCgHsVp-Y0mqn-49" value="Zablokowane" style="rounded=1;whiteSpace=wrap;html=1;" vertex="1" parent="1">
          <mxGeometry x="460" y="1070" width="100" height="50" as="geometry" />
        </mxCell>
        <mxCell id="-Jw6ljCcCgHsVp-Y0mqn-58" style="edgeStyle=orthogonalEdgeStyle;rounded=0;orthogonalLoop=1;jettySize=auto;html=1;exitX=0.5;exitY=1;exitDx=0;exitDy=0;entryX=0.5;entryY=0;entryDx=0;entryDy=0;" edge="1" parent="1" source="-Jw6ljCcCgHsVp-Y0mqn-50" target="-Jw6ljCcCgHsVp-Y0mqn-51">
          <mxGeometry relative="1" as="geometry" />
        </mxCell>
        <mxCell id="-Jw6ljCcCgHsVp-Y0mqn-50" value="Zamknięte" style="rounded=1;whiteSpace=wrap;html=1;" vertex="1" parent="1">
          <mxGeometry x="210" y="1169" width="100" height="50" as="geometry" />
        </mxCell>
        <mxCell id="-Jw6ljCcCgHsVp-Y0mqn-51" value="" style="ellipse;html=1;shape=endState;fillColor=strokeColor;" vertex="1" parent="1">
          <mxGeometry x="240" y="1260" width="40" height="40" as="geometry" />
        </mxCell>
        <mxCell id="-Jw6ljCcCgHsVp-Y0mqn-53" value="Weryfikacja zakończona" style="html=1;verticalAlign=top;labelBackgroundColor=none;endArrow=open;endFill=0;rounded=0;exitX=0.5;exitY=1;exitDx=0;exitDy=0;entryX=0.5;entryY=0;entryDx=0;entryDy=0;" edge="1" parent="1" source="-Jw6ljCcCgHsVp-Y0mqn-47" target="-Jw6ljCcCgHsVp-Y0mqn-48">
          <mxGeometry x="-0.6" width="160" relative="1" as="geometry">
            <mxPoint x="360" y="960" as="sourcePoint" />
            <mxPoint x="520" y="960" as="targetPoint" />
            <mxPoint as="offset" />
          </mxGeometry>
        </mxCell>
        <mxCell id="-Jw6ljCcCgHsVp-Y0mqn-54" value="Konto bankowe" style="text;html=1;align=center;verticalAlign=middle;resizable=0;points=[];autosize=1;strokeColor=none;fillColor=none;" vertex="1" parent="1">
          <mxGeometry x="95" y="848" width="110" height="30" as="geometry" />
        </mxCell>
        <mxCell id="-Jw6ljCcCgHsVp-Y0mqn-55" value="Użytkownik zamka knto" style="html=1;verticalAlign=top;labelBackgroundColor=none;endArrow=open;endFill=0;rounded=0;exitX=0.5;exitY=1;exitDx=0;exitDy=0;entryX=0.5;entryY=0;entryDx=0;entryDy=0;" edge="1" parent="1" source="-Jw6ljCcCgHsVp-Y0mqn-48" target="-Jw6ljCcCgHsVp-Y0mqn-50">
          <mxGeometry x="-0.5918" width="160" relative="1" as="geometry">
            <mxPoint x="360" y="1160" as="sourcePoint" />
            <mxPoint x="520" y="1160" as="targetPoint" />
            <mxPoint as="offset" />
          </mxGeometry>
        </mxCell>
        <mxCell id="-Jw6ljCcCgHsVp-Y0mqn-56" value="Podejrzane działanie" style="html=1;verticalAlign=top;labelBackgroundColor=none;endArrow=open;endFill=0;rounded=0;exitX=1;exitY=0.75;exitDx=0;exitDy=0;entryX=0;entryY=0.75;entryDx=0;entryDy=0;" edge="1" parent="1" source="-Jw6ljCcCgHsVp-Y0mqn-48" target="-Jw6ljCcCgHsVp-Y0mqn-49">
          <mxGeometry width="160" relative="1" as="geometry">
            <mxPoint x="360" y="1160" as="sourcePoint" />
            <mxPoint x="520" y="1160" as="targetPoint" />
          </mxGeometry>
        </mxCell>
        <mxCell id="-Jw6ljCcCgHsVp-Y0mqn-57" value="Administrator odblokowuje" style="html=1;verticalAlign=top;labelBackgroundColor=none;endArrow=open;endFill=0;rounded=0;exitX=0;exitY=0.25;exitDx=0;exitDy=0;entryX=1;entryY=0.25;entryDx=0;entryDy=0;" edge="1" parent="1" source="-Jw6ljCcCgHsVp-Y0mqn-49" target="-Jw6ljCcCgHsVp-Y0mqn-48">
          <mxGeometry x="-0.0667" y="-22" width="160" relative="1" as="geometry">
            <mxPoint x="360" y="1160" as="sourcePoint" />
            <mxPoint x="520" y="1160" as="targetPoint" />
            <mxPoint as="offset" />
          </mxGeometry>
        </mxCell>
      </root>
    </mxGraphModel>
  </diagram>
</mxfile>
